<svg xmlns="http://www.w3.org/2000/svg" width="206" height="22.998" viewBox="0 0 206 22.998"><path d="M29.209,7.038h-3.4a2,2,0,0,0-1.5.883c-.241.4-7.828,12.914-9.249,15.259C13.608,20.786,6.048,8.32,5.8,7.917a2.025,2.025,0,0,0-1.5-.889H.968C.632,7.053,0,7.389,0,8.5V28.583H4.7V14.971c1.73,2.854,7.439,12.261,7.822,12.871a1.751,1.751,0,0,0,1.384.737h2.377a1.614,1.614,0,0,0,1.271-.735c.06-.092.1-.164.187-.316.367-.635,1.467-2.532,7.671-12.581V28.583h4.691V8.5c0-1.394-.849-1.456-.9-1.46Z" transform="translate(0 -5.585)" fill="#10069f"/><path d="M348.024,15.437H331.643c-.093,0-2.256-.023-2.256-2s2.237-1.971,2.26-1.971h21.97V6.948h-22.6a6.474,6.474,0,1,0,.169,12.945h16.091a2.049,2.049,0,0,1,2,2.08,2.008,2.008,0,0,1-2.037,2.049h-22.1l-.008,4.487h22.9a6.394,6.394,0,0,0,6.052-6.536c0-3.542-2.826-6.536-6.048-6.536Z" transform="translate(-257.677 -5.521)" fill="#10069f"/><path d="M491.14,11.49h19.475V6.878l-19.928.033c-4.462,0-9.237,4.3-9.237,10.711s4.785,10.832,9.256,10.832h19.91V23.9l-19.475-.016c-1.891,0-4.689-1.98-4.689-6.22s2.8-6.171,4.689-6.171Z" transform="translate(-382.271 -5.466)" fill="#10069f"/><rect width="33.903" height="12.602" transform="translate(172.097 5.87)" fill="#10069f"/><path d="M784.873,4.416a2.129,2.129,0,0,1-2.18-2.076c0-.044,0-.088,0-.132a2.174,2.174,0,0,1,4.347-.085c0,.028,0,.056,0,.085a2.141,2.141,0,0,1-2.074,2.206Zm0-4.031a1.716,1.716,0,0,0-1.706,1.823,1.7,1.7,0,1,0,3.4,0A1.71,1.71,0,0,0,784.873.386Zm-.439,3.086h-.4V1.028h.929c.593,0,.894.207.894.7a.626.626,0,0,1-.639.667l.686,1.074h-.455l-.635-1.043h-.379Zm.449-1.386c.3,0,.569-.029.569-.384,0-.3-.29-.331-.534-.331h-.486v.715h.451Z" transform="translate(-621.458 0)" fill="#10069f"/><path d="M183.92,6.988H173.15c-6.339,0-9.83,3.815-9.83,10.744s3.488,10.809,9.822,10.809h10.766c6.355,0,9.855-3.84,9.855-10.809S190.267,6.988,183.92,6.988Zm4.948,10.746c0,4-1.79,6.2-5.041,6.2H173.243c-3.263,0-5.059-2.2-5.059-6.2s1.8-6.144,5.059-6.144h10.578C187.076,11.59,188.868,13.773,188.868,17.734Z" transform="translate(-129.676 -5.553)" fill="#10069f"/><path d="M662.773,6.738H646.608c-4.009,0-6.308,2.8-6.308,7.69V28.313l4.711,0V23.862h19.337v4.452h4.73V14.428C669.078,9.685,666.662,6.738,662.773,6.738Zm1.57,7.69v5H645.034v-5c0-2.09.791-3.064,2.488-3.064h14.3C663.5,11.364,664.342,12.4,664.342,14.428Z" transform="translate(-508.398 -5.354)" fill="#10069f"/></svg>