<?xml version="1.0" encoding="UTF-8"?>
<svg xmlns="http://www.w3.org/2000/svg" id="dark_blue" version="1.1" viewBox="0 0 300 36.7">
  <defs>
    <style>
      .st0 {
        fill: #008dcd;
      }

      .st1 {
        fill: #004494;
      }
    </style>
  </defs>
  <g>
    <polygon class="st1" points="202.7 3.1 218.5 3.1 190.3 36.7 174.5 36.7 174.5 36.7 0 36.7 0 25.5 183.9 25.5 202.7 3.1 202.7 3.1"></polygon>
    <polygon class="st0" points="221.6 3.1 221.6 3.1 221.6 3.1 300 3.1 300 14.3 228.1 14.3 209.3 36.7 193.4 36.7 221.6 3.1 221.6 3.1"></polygon>
  </g>
  <polygon points="49.7 14.3 49.7 3.1 44.7 3.1 42.6 10.9 40.4 3.1 35.4 3.1 35.4 14.3 38.3 14.3 38.3 5.5 41 14.3 43.8 14.3 46.5 5.5 46.5 14.3 49.7 14.3 49.7 14.3"></polygon>
  <path d="M62.1,9.7V3.1h-3.3v7c0,1.5-.4,2.4-1.8,2.4s-1.7-.9-1.7-2.4V3.1h-3.4v6.7c0,1.1.1,2.1.7,3,.8,1.3,2.4,1.8,4.3,1.8s3.3-.5,4.2-1.4c.7-.8,1.1-1.8,1.1-3.5h0ZM60.3,0h-2.6v2.2h2.6V0h0ZM56.4,0h-2.5v2.2h2.5V0h0ZM56.4,2.2V0v2.2Z"></path>
  <polygon points="72.6 14.3 72.6 12.3 67.7 12.3 67.7 3.1 64.3 3.1 64.3 14.3 72.6 14.3 72.6 14.3"></polygon>
  <polygon points="82.3 14.3 82.3 12.3 77.3 12.3 77.3 3.1 73.9 3.1 73.9 14.3 82.3 14.3 82.3 14.3"></polygon>
  <polygon points="92.1 14.3 92.1 12.3 86.9 12.3 86.9 9.7 91.7 9.7 91.7 7.6 86.9 7.6 86.9 5.3 91.9 5.3 91.9 3.1 83.6 3.1 83.6 14.3 92.1 14.3 92.1 14.3"></polygon>
  <path d="M104,14.3c-.2-.5-.3-.9-.4-1.3,0-.7-.2-1.3-.3-2-.2-1.1-.8-2.2-2.3-2.2.7-.2,1.2-.3,1.6-.7.6-.5,1-1.3,1-2.2s-.6-1.9-1.6-2.4c-.7-.3-1.6-.4-2.9-.4h-5.4v11.2h3.4v-4.4h1.2c1.3,0,1.5.3,1.7,1.6,0,.5.1,1,.2,1.5,0,.5.2.9.3,1.4h3.5ZM100.3,6.5c0,1.2-1,1.4-2.2,1.4h-1.1v-2.8h1.1c1.3,0,2.1.2,2.1,1.3h0Z"></path>
  <polygon points="125.4 14.3 125.4 3.1 120.5 3.1 118.3 10.9 116.1 3.1 111.2 3.1 111.2 14.3 114 14.3 114 5.5 116.7 14.3 119.6 14.3 122.3 5.5 122.3 14.3 125.4 14.3 125.4 14.3"></polygon>
  <path d="M138.8,14.3l-4.1-11.2h-4.3l-4.1,11.2h3.2l.8-2.4h4.1l.8,2.4h3.6ZM133.8,10h-3l1.5-4.8,1.5,4.8h0Z"></path>
  <path d="M150,14.3c-.2-.5-.3-.9-.4-1.3,0-.7-.2-1.3-.3-2-.2-1.1-.8-2.2-2.3-2.2.7-.2,1.2-.3,1.6-.7.6-.5,1-1.3,1-2.2s-.6-1.9-1.6-2.4c-.7-.3-1.6-.4-2.9-.4h-5.4v11.2h3.4v-4.4h1.2c1.3,0,1.5.3,1.7,1.6,0,.5.1,1,.2,1.5,0,.5.2.9.3,1.4h3.5ZM146.3,6.5c0,1.2-1,1.4-2.2,1.4h-1.1v-2.8h1.1c1.3,0,2.1.2,2.1,1.3h0Z"></path>
  <polygon points="160.4 5.3 160.4 3.1 150.3 3.1 150.3 5.3 153.6 5.3 153.6 14.3 157.1 14.3 157.1 5.3 160.4 5.3 160.4 5.3"></polygon>
  <polygon points="165 3.1 161.6 3.1 161.6 14.3 165 14.3 165 3.1 165 3.1"></polygon>
  <polygon points="178.2 14.3 178.2 3.1 175.2 3.1 175.2 11.2 171.8 3.1 167.2 3.1 167.2 14.3 170.2 14.3 170.2 6.1 173.7 14.3 178.2 14.3 178.2 14.3"></polygon>
  <polygon points="183.8 3.1 180.4 3.1 180.4 14.3 183.8 14.3 183.8 3.1 183.8 3.1"></polygon>
</svg>
