<?xml version="1.0" encoding="UTF-8" standalone="no"?>
<svg
    version="1.1"
    x="0px"
    y="0px"
    width="480.923"
    height="155.35001"
    viewBox="0 180.047 480.923 155.35"
    enable-background="new 0 180.047 728.5 155.813"
    xml:space="preserve"
    id="svg66"
    xmlns="http://www.w3.org/2000/svg">
    <g id="g61" transform="translate(0,-0.001)">
		<g id="g5">
			<path
                fill="#007ac9"
                d="m 463.65,214.593 c -9.539,0 -17.271,-7.73 -17.271,-17.273 0,-9.543 7.732,-17.272 17.271,-17.272 9.545,0 17.273,7.728 17.273,17.272 -10e-4,9.545 -7.728,17.273 -17.273,17.273 z m 0,-32.016 c -8.014,0 -14.502,6.632 -14.502,14.744 0,8.111 6.49,14.744 14.502,14.744 8.018,0 14.553,-6.633 14.553,-14.744 -0.002,-8.112 -6.537,-14.744 -14.553,-14.744 z m 4.199,24.191 -4.342,-7.73 h -2.863 v 7.73 h -2.625 v -18.943 h 6.441 c 3.293,0 5.961,2.481 5.961,5.678 0,2.767 -1.713,4.484 -4.053,5.201 l 4.535,8.063 h -3.055 v 0.001 z m -3.67,-16.603 h -3.531 v 6.632 h 3.531 c 2.098,0 3.578,-1.384 3.578,-3.292 -0.003,-1.911 -1.48,-3.34 -3.578,-3.34 z"
                id="path3"/>
		</g>
        <g id="g33">
			<path
                fill="#1d1d1b"
                d="m 169.253,326.771 c -5.647,0 -9.725,-3.882 -9.725,-9.452 v -18.706 h 2.98 v 18.472 c 0,4.236 2.667,7.02 6.745,7.02 4.078,0 6.785,-2.782 6.785,-7.02 v -18.472 h 2.981 v 18.706 c -0.003,5.57 -4.12,9.452 -9.766,9.452 z"
                id="path7"/>
            <path
                fill="#1d1d1b"
                d="m 199.408,326.533 v -11.882 c 0,-3.413 -1.843,-5.14 -4.745,-5.14 -2.902,0 -4.784,1.767 -4.784,5.14 v 11.882 h -2.823 V 307.24 h 2.823 v 2.117 c 1.373,-1.567 3.254,-2.353 5.411,-2.353 2.079,0 3.766,0.628 4.942,1.806 1.372,1.333 2,3.135 2,5.37 v 12.354 h -2.824 z"
                id="path9"/>
            <path
                fill="#1d1d1b"
                d="m 209.801,301.748 v -3.176 h 3.177 v 3.176 z m 0.159,24.785 V 307.24 h 2.824 v 19.293 z"
                id="path11"/>
            <path
                fill="#1d1d1b"
                d="m 232.233,335.16 v -10.901 c -1.569,2 -3.334,2.511 -5.451,2.511 -1.96,0 -3.686,-0.67 -4.706,-1.688 -1.96,-1.959 -2.353,-5.178 -2.353,-8.197 0,-3.019 0.392,-6.235 2.353,-8.194 1.02,-1.021 2.746,-1.687 4.706,-1.687 2.117,0 3.922,0.47 5.49,2.508 v -2.271 h 2.784 v 27.92 h -2.823 z m -4.824,-25.644 c -4.196,0 -4.863,3.606 -4.863,7.372 0,3.766 0.667,7.374 4.863,7.374 4.196,0 4.824,-3.608 4.824,-7.374 0,-3.766 -0.628,-7.372 -4.824,-7.372 z"
                id="path13"/>
            <path
                fill="#1d1d1b"
                d="m 255.177,326.533 v -2.157 c -1.372,1.571 -3.294,2.395 -5.451,2.395 -2.079,0 -3.804,-0.628 -4.981,-1.804 -1.372,-1.333 -1.961,-3.177 -1.961,-5.412 V 307.24 h 2.825 v 11.883 c 0,3.409 1.804,5.136 4.706,5.136 2.901,0 4.823,-1.765 4.823,-5.136 V 307.24 h 2.824 v 19.293 z"
                id="path15"/>
            <path
                fill="#1d1d1b"
                d="m 267.645,317.631 c 0,4.234 2,6.669 5.686,6.669 2.236,0 3.53,-0.668 5.06,-2.198 l 1.921,1.688 c -1.96,1.96 -3.765,2.98 -7.059,2.98 -5.098,0 -8.432,-3.062 -8.432,-9.885 0,-6.235 3.02,-9.881 7.922,-9.881 4.98,0 7.921,3.607 7.921,9.333 v 1.294 z m 9.608,-5.333 c -0.744,-1.766 -2.47,-2.903 -4.509,-2.903 -2.039,0 -3.766,1.138 -4.511,2.903 -0.431,1.059 -0.51,1.648 -0.588,3.218 h 10.196 c -0.078,-1.569 -0.157,-2.156 -0.588,-3.218 z"
                id="path17"/>
            <path
                fill="#1d1d1b"
                d="m 309.528,326.533 h -10.862 v -27.921 h 10.511 c 4.862,0 8.235,2.784 8.235,7.452 0,2.941 -1.764,5.255 -4.118,6.118 2.667,0.979 4.549,3.294 4.549,6.627 0,5.06 -3.373,7.724 -8.315,7.724 z m -0.588,-25.252 h -7.294 v 9.686 h 7.294 c 3.098,0 5.49,-1.528 5.49,-4.862 0,-3.337 -2.392,-4.824 -5.49,-4.824 z m 0.314,12.349 h -7.608 v 10.236 h 7.608 c 3.451,0 5.608,-2.001 5.608,-5.139 0,-3.133 -2.157,-5.097 -5.608,-5.097 z"
                id="path19"/>
            <path
                fill="#1d1d1b"
                d="m 336.156,326.533 v -1.841 c -1.568,1.567 -2.98,2.078 -5.569,2.078 -2.666,0 -4.235,-0.511 -5.45,-1.768 -0.942,-0.941 -1.452,-2.391 -1.452,-3.922 0,-3.372 2.354,-5.568 6.667,-5.568 h 5.804 v -1.844 c 0,-2.825 -1.412,-4.234 -4.94,-4.234 -2.471,0 -3.726,0.588 -4.863,2.196 l -1.922,-1.764 c 1.728,-2.236 3.687,-2.863 6.824,-2.863 5.177,0 7.726,2.233 7.726,6.431 v 13.099 z m 0,-8.902 h -5.412 c -2.902,0 -4.314,1.178 -4.314,3.411 0,2.233 1.373,3.294 4.432,3.294 1.648,0 3.099,-0.118 4.314,-1.294 0.667,-0.627 0.98,-1.725 0.98,-3.333 z"
                id="path21"/>
            <path
                fill="#1d1d1b"
                d="m 359.058,326.533 v -11.882 c 0,-3.413 -1.843,-5.14 -4.745,-5.14 -2.903,0 -4.785,1.767 -4.785,5.14 v 11.882 h -2.823 V 307.24 h 2.823 v 2.117 c 1.373,-1.567 3.255,-2.353 5.412,-2.353 2.079,0 3.766,0.628 4.941,1.806 1.373,1.333 2.001,3.135 2.001,5.37 v 12.354 h -2.824 z"
                id="path23"/>
            <path
                fill="#1d1d1b"
                d="m 381.136,326.533 v -2.315 c -1.572,2.041 -3.373,2.552 -5.492,2.552 -1.961,0 -3.686,-0.67 -4.705,-1.688 -1.961,-1.959 -2.354,-5.178 -2.354,-8.197 0,-3.019 0.393,-6.235 2.354,-8.194 1.02,-1.021 2.744,-1.687 4.705,-1.687 2.119,0 3.881,0.47 5.451,2.47 v -10.861 h 2.82 v 27.921 h -2.779 z m -4.863,-17.017 c -4.197,0 -4.863,3.606 -4.863,7.372 0,3.766 0.666,7.374 4.863,7.374 4.195,0 4.824,-3.608 4.824,-7.374 0,-3.766 -0.628,-7.372 -4.824,-7.372 z"
                id="path25"/>
            <path
                fill="#1d1d1b"
                d="m 391.685,301.748 v -3.176 h 3.176 v 3.176 z m 0.159,24.785 V 307.24 h 2.822 v 19.293 z"
                id="path27"/>
            <path
                fill="#1d1d1b"
                d="m 414.978,326.533 v -11.882 c 0,-3.413 -1.842,-5.14 -4.744,-5.14 -2.902,0 -4.783,1.767 -4.783,5.14 v 11.882 h -2.824 V 307.24 h 2.824 v 2.117 c 1.371,-1.567 3.256,-2.353 5.41,-2.353 2.078,0 3.764,0.628 4.941,1.806 1.371,1.333 2,3.135 2,5.37 v 12.354 h -2.824 z"
                id="path29"/>
            <path
                fill="#1d1d1b"
                d="m 431.724,335.398 c -2.9,0 -4.508,-0.744 -6.549,-2.588 l 1.844,-1.802 c 1.412,1.252 2.393,1.922 4.627,1.922 3.729,0 5.295,-2.628 5.295,-5.923 v -3.021 c -1.566,1.999 -3.33,2.509 -5.41,2.509 -1.959,0 -3.646,-0.706 -4.666,-1.724 -1.924,-1.922 -2.354,-4.903 -2.354,-8.041 0,-3.135 0.43,-6.116 2.354,-8.036 1.02,-1.021 2.744,-1.688 4.703,-1.688 2.119,0 3.846,0.472 5.412,2.511 v -2.277 h 2.783 v 19.884 c 0.002,4.782 -2.98,8.274 -8.039,8.274 z m 0.432,-25.882 c -4.197,0 -4.824,3.606 -4.824,7.215 0,3.609 0.627,7.216 4.824,7.216 4.195,0 4.783,-3.607 4.783,-7.216 0.002,-3.609 -0.588,-7.215 -4.783,-7.215 z"
                id="path31"/>
		</g>
        <g id="g41">
			<path
                fill="#007ac9"
                d="m 189.077,196.771 h 35.408 l 33.443,77.782 h -29.632 l -4.684,-12.641 h -33.987 l -4.685,12.641 h -29.632 z m 17.65,19.608 h -0.218 l -10.784,29.412 h 21.786 z"
                id="path35"/>
            <path
                fill="#007ac9"
                d="m 254.775,196.771 h 87.954 V 214.2 h -28.541 v 60.353 h -30.87 V 214.2 h -28.541 v -17.429 z"
                id="path37"/>
            <path
                fill="#007ac9"
                d="m 410.269,219.538 c -0.764,-5.338 -5.014,-9.042 -16.887,-9.042 -8.713,0 -13.506,2.506 -13.506,7.626 0,2.614 1.854,4.139 5.771,4.792 6.535,1.089 26.471,4.031 34.096,5.337 14.488,2.504 23.203,8.388 23.203,22.112 0,26.366 -34.205,26.582 -44.881,26.582 -26.365,0 -45.428,-4.684 -46.954,-26.362 h 30.721 c 0.654,5.88 3.922,9.583 17.428,9.583 6.535,0 13.617,-1.524 13.617,-8.171 0,-4.134 -3.268,-5.554 -12.307,-6.971 l -25.924,-3.921 c -16.016,-2.398 -22.226,-10.459 -22.226,-22.006 0,-10.239 6.318,-24.73 40.416,-24.73 28.211,0 45.207,6.756 46.842,25.167 h -29.41 v 0.004 z"
                id="path39"/>
		</g>
        <g id="g59">
			<g id="g45">
				<path
                    fill="#007ac9"
                    d="m 112.49,233.283 h -10.779 l -0.048,76.16 c 0,3.554 -0.002,11.894 -5.076,17.153 h 8.035 c 13.909,0 25.223,-11.313 25.223,-25.222 v -56.59 c -0.83,-10.052 -8.789,-11.501 -17.355,-11.501 z"
                    id="path43"/>
			</g>
            <g id="g49">
				<path
                    fill="#007ac9"
                    d="m 17.421,298.402 c -3.615,0 -12.184,-0.006 -17.421,-5.349 v 8.322 c 0,13.908 11.312,25.222 25.223,25.222 H 83.42 c 8.595,-1.523 9.887,-9.064 9.887,-17.153 l 0.007,-10.985 z"
                    id="path47"/>
			</g>
            <g id="g53">
				<path
                    fill="#007ac9"
                    d="m 28.177,214.094 c 0,-3.598 0.006,-12.104 5.275,-17.345 H 25.223 C 11.312,196.749 0,208.064 0,221.969 v 55.426 c 0.309,11.09 8.536,12.647 17.421,12.647 l 10.716,0.02 z"
                    id="path51"/>
			</g>
            <g id="g57">
				<path
                    fill="#007ac9"
                    d="m 104.625,196.749 h -56.77 c -9.891,0.911 -11.316,8.83 -11.316,17.345 v 10.791 l 75.953,-0.116 c 3.599,0 12.113,0.164 17.357,5.443 v -8.244 c 0,-13.904 -11.316,-25.219 -25.224,-25.219 z"
                    id="path55"/>
			</g>
		</g>
	</g>
</svg>
