<svg xmlns="http://www.w3.org/2000/svg" xmlns:xlink="http://www.w3.org/1999/xlink" width="327.611" height="36" viewBox="0 0 327.611 36"><defs><clipPath id="a"><path d="M0-120.545H327.611v-36H0Z" transform="translate(0 156.545)" fill="none"/></clipPath></defs><g transform="translate(0 156.545)"><g transform="translate(0 -156.545)" clip-path="url(#a)"><g transform="translate(203.087 6.857)"><path d="M-68.448-2.555V-.591c-2.822-2.57-8.3-4.138-14.076-.922a11.689,11.689,0,0,0-4.692,5.165,16.788,16.788,0,0,0-1.675,7.529,17.153,17.153,0,0,0,1.623,7.466,12.426,12.426,0,0,0,4.615,5.2,13.375,13.375,0,0,0,7.287,1.9c2.684,0,5.665-.869,6.967-2.623v1.926h5.446V-2.555ZM-71.49,18.851a6.7,6.7,0,0,1-3.873,1.125A6.06,6.06,0,0,1-80.6,17.548a10.584,10.584,0,0,1-1.764-6.367,12.906,12.906,0,0,1,.741-4.525,6.606,6.606,0,0,1,2.3-3.132,6.55,6.55,0,0,1,3.963-1.138c5.153,0,6.777,4.244,6.777,9.04,0,3.327-1.011,6.154-2.9,7.426" transform="translate(88.889 3.318)" fill="#fff"/></g><g transform="translate(0 0.858)"><path d="M-52.252-40.344v-5.287h-9.469v-6.761h-6.136v23.1q0,2.353.051,4.219a8.237,8.237,0,0,0,1,3.656,6.418,6.418,0,0,0,3.145,2.876,12.345,12.345,0,0,0,4.692.971,40.08,40.08,0,0,0,6.72-.448v-5.164a32.8,32.8,0,0,1-5.966.2,3.568,3.568,0,0,1-2.941-1.713,4.114,4.114,0,0,1-.524-2.046q-.039-1.252-.038-2.915V-40.344Z" transform="translate(67.857 52.392)" fill="#fff"/></g><g transform="translate(76.481 0)"><path d="M-84.457-57.663a17.294,17.294,0,0,0-.729-3.388,11.349,11.349,0,0,0-1.738-3.375,8.949,8.949,0,0,0-3.17-2.608,11.064,11.064,0,0,0-5.063-1.023,11.909,11.909,0,0,0-6.545,1.7,10.957,10.957,0,0,0-2.48,2.166V-74.884h-5.5v35.233h6.238v-14.19A12.883,12.883,0,0,1-102.879-58a6.608,6.608,0,0,1,1.5-2.557A5.3,5.3,0,0,1-99.3-61.87a7.309,7.309,0,0,1,2.326-.383,5.786,5.786,0,0,1,3.49.946,5.921,5.921,0,0,1,1.943,2.416,10.369,10.369,0,0,1,.831,3.056,25.985,25.985,0,0,1,.179,2.889v13.3h6.238V-55.068q0-1-.166-2.595" transform="translate(109.68 74.884)" fill="#fff"/></g><g transform="translate(106.221 6.827)"><path d="M-84.458-34.8a17.328,17.328,0,0,0-.729-3.388,11.366,11.366,0,0,0-1.739-3.375,8.942,8.942,0,0,0-3.17-2.608A11.062,11.062,0,0,0-95.158-45.2a11.908,11.908,0,0,0-6.545,1.7,10.951,10.951,0,0,0-2.48,2.167V-44.4h-5.5v27.613h6.239v-14.19a12.9,12.9,0,0,1,.563-4.155,6.611,6.611,0,0,1,1.5-2.557A5.3,5.3,0,0,1-99.3-39.01a7.314,7.314,0,0,1,2.327-.383,5.785,5.785,0,0,1,3.49.946,5.925,5.925,0,0,1,1.943,2.416,10.39,10.39,0,0,1,.831,3.056,26.03,26.03,0,0,1,.178,2.889v13.3h6.239V-32.208q0-1-.166-2.595" transform="translate(109.681 45.197)" fill="#fff"/></g><g transform="translate(135.067 6.852)"><path d="M-86.386-23.5a12.8,12.8,0,0,0-4.807-5.152,13.783,13.783,0,0,0-7.261-1.867,13.729,13.729,0,0,0-7.159,1.841,12.814,12.814,0,0,0-4.832,5.114,16,16,0,0,0-1.739,7.619,16.2,16.2,0,0,0,1.7,7.556,12.711,12.711,0,0,0,4.794,5.152,13.738,13.738,0,0,0,7.236,1.866,13.806,13.806,0,0,0,7.235-1.854A12.8,12.8,0,0,0-86.4-8.366a16.065,16.065,0,0,0,1.726-7.581A16.109,16.109,0,0,0-86.386-23.5m-6.6,13.9a6.323,6.323,0,0,1-5.471,2.454,6.357,6.357,0,0,1-5.382-2.39,10.282,10.282,0,0,1-1.828-6.405,12.66,12.66,0,0,1,.767-4.589,6.525,6.525,0,0,1,2.365-3.094,6.98,6.98,0,0,1,4.078-1.112,6.406,6.406,0,0,1,5.446,2.391,10.334,10.334,0,0,1,1.816,6.4,10.5,10.5,0,0,1-1.79,6.341" transform="translate(112.184 30.521)" fill="#fff"/></g><g transform="translate(165.976 0.858)"><path d="M-52.252-40.344v-5.287h-9.469v-6.761h-6.136v23.1q0,2.353.051,4.219a8.236,8.236,0,0,0,1,3.656,6.42,6.42,0,0,0,3.145,2.876,12.347,12.347,0,0,0,4.692.971,40.078,40.078,0,0,0,6.72-.448v-5.164a32.8,32.8,0,0,1-5.966.2,3.567,3.567,0,0,1-2.94-1.713,4.113,4.113,0,0,1-.524-2.045q-.038-1.253-.038-2.915V-40.344Z" transform="translate(67.857 52.392)" fill="#fff"/></g><g transform="translate(17.344 6.853)"><path d="M-78.935-54.537h3.017a19.365,19.365,0,0,0-1.1-8.617,11.9,11.9,0,0,0-4.462-5.663,12.84,12.84,0,0,0-7.3-2.007,13.732,13.732,0,0,0-7.159,1.841,12.712,12.712,0,0,0-4.832,5.178,16.79,16.79,0,0,0-1.739,7.862,15.1,15.1,0,0,0,1.777,7.415,12.84,12.84,0,0,0,4.947,5.037,14.56,14.56,0,0,0,7.364,1.815c2.659,0,10.386-1.363,12.2-9.716H-82.31c-.6,1.278-1.449,3.938-6.469,3.938a6.469,6.469,0,0,1-5.369-2.3,8.993,8.993,0,0,1-1.75-4.781h16.963ZM-95.75-59.191a8.631,8.631,0,0,1,1.6-3.9,6.718,6.718,0,0,1,5.625-2.339,5.745,5.745,0,0,1,4.909,2.071,8.673,8.673,0,0,1,1.436,4.167Z" transform="translate(102.509 70.824)" fill="#fff"/></g><g transform="translate(46.848 6.853)"><path d="M-58.261-74.484a6.073,6.073,0,0,1-3.874,1.125,6.06,6.06,0,0,1-5.241-2.429,10.584,10.584,0,0,1-1.765-6.367,12.906,12.906,0,0,1,.742-4.525,6.6,6.6,0,0,1,2.3-3.132,6.549,6.549,0,0,1,3.963-1.138,6.164,6.164,0,0,1,3.784,1.24,6.762,6.762,0,0,1,2.378,3.464h6.252a11.128,11.128,0,0,0-4.373-8.118,13.2,13.2,0,0,0-7.964-2.365,13.5,13.5,0,0,0-7.235,1.88,12.553,12.553,0,0,0-4.692,5.165,16.788,16.788,0,0,0-1.675,7.529,17.152,17.152,0,0,0,1.623,7.466,12.422,12.422,0,0,0,4.616,5.2,13.374,13.374,0,0,0,7.287,1.9,13.193,13.193,0,0,0,7.824-2.262c2.027-1.436,4.59-5.482,4.59-7.914H-55.96a7.1,7.1,0,0,1-2.3,3.274" transform="translate(75.66 96.728)" fill="#fff"/></g><g transform="translate(233.584 6.827)"><path d="M-84.457-34.8a17.342,17.342,0,0,0-.729-3.388,11.367,11.367,0,0,0-1.738-3.375A8.952,8.952,0,0,0-90.1-44.174,11.063,11.063,0,0,0-95.158-45.2a11.909,11.909,0,0,0-6.546,1.7,10.945,10.945,0,0,0-2.479,2.165V-44.4h-5.5v27.613h6.238v-14.19a12.905,12.905,0,0,1,.562-4.155,6.608,6.608,0,0,1,1.5-2.557A5.308,5.308,0,0,1-99.3-39.01a7.314,7.314,0,0,1,2.327-.384,5.785,5.785,0,0,1,3.49.947,5.913,5.913,0,0,1,1.943,2.416,10.341,10.341,0,0,1,.831,3.056,25.985,25.985,0,0,1,.179,2.889v13.3h6.239V-32.208q0-1-.166-2.595" transform="translate(109.68 45.197)" fill="#fff"/></g><g transform="translate(186.203 7.478)"><path d="M-43.579-.091a10.735,10.735,0,0,0-2.544.486,8.816,8.816,0,0,0-2.263,1.087,7.453,7.453,0,0,0-2.058,1.88,9.587,9.587,0,0,0-.7,1.085V.023h-5.446V27.636h6.187V13.6a10.907,10.907,0,0,1,.383-2.953A7.341,7.341,0,0,1-48.833,8.2a6.3,6.3,0,0,1,2.084-1.764,6.515,6.515,0,0,1,2.876-.9,7.863,7.863,0,0,1,2.825.23V.023a10.854,10.854,0,0,0-2.531-.115" transform="translate(56.593 0.119)" fill="#fff"/></g><g transform="translate(261.901 6.853)"><path d="M-75.886-55.479a7.207,7.207,0,0,0-2.864-2.6,23.088,23.088,0,0,0-5.28-1.931q-3.221-.818-4.845-1.38a5.744,5.744,0,0,1-2.161-1.125,1.894,1.894,0,0,1-.537-1.356,2.421,2.421,0,0,1,1.33-2.186,6.144,6.144,0,0,1,3.5-.652A6.587,6.587,0,0,1-83.1-65.554a3.975,3.975,0,0,1,1.6,2.787h6.235A9.543,9.543,0,0,0-77.1-68.213a9.918,9.918,0,0,0-4.027-2.838,15.306,15.306,0,0,0-5.715-1,14.52,14.52,0,0,0-5.727,1.036,8.648,8.648,0,0,0-3.784,2.953,7.6,7.6,0,0,0-1.356,4.5,6.613,6.613,0,0,0,.9,3.528,7.222,7.222,0,0,0,2.94,2.519,27.67,27.67,0,0,0,5.523,1.982q3.119.819,4.628,1.355a4.435,4.435,0,0,1,1.956,1.112,2.411,2.411,0,0,1,.448,1.522,2.826,2.826,0,0,1-1.214,2.416,5.776,5.776,0,0,1-3.439.882,7.084,7.084,0,0,1-4.193-1.176,5.311,5.311,0,0,1-2.148-3.221l-6.235,0c0,2.408,2.91,9.744,12.142,9.744q5.343,0,8.374-2.377A7.863,7.863,0,0,0-75-51.824a7.127,7.127,0,0,0-.882-3.656" transform="translate(98.549 72.048)" fill="#fff"/></g><g transform="translate(292.361 0)"><path d="M-30.136,0c3.052,0,5,2.344,8.375,2.344S-15.938,0-12.886,0a9,9,0,0,1,9,9,9,9,0,0,1-9,9c-3.052,0-6.5-2.344-8.875-2.344S-27.084,18-30.136,18a9,9,0,0,1-9-9,9,9,0,0,1,9-9" transform="translate(39.136)" fill="#1e4aff"/></g></g></g></svg>